<svg xmlns="http://www.w3.org/2000/svg" width="86.35000000000001" height="35" viewBox="0 0 86.35000000000001 35"><rect class="svg__rect" x="0" y="0" width="55.42" height="35" fill="#A7BFC1"/><rect class="svg__rect" x="53.42" y="0" width="32.93000000000001" height="35" fill="#000000"/><path class="svg__text" d="M13.97 18.13L13.97 18.13L13.97 17.46Q13.97 15.53 14.90 14.44Q15.82 13.35 17.48 13.35L17.48 13.35Q18.90 13.35 19.74 14.05Q20.58 14.76 20.75 16.08L20.75 16.08L19.30 16.08Q19.05 14.54 17.51 14.54L17.51 14.54Q16.51 14.54 16.00 15.26Q15.48 15.98 15.46 17.37L15.46 17.37L15.46 18.02Q15.46 19.40 16.04 20.17Q16.63 20.93 17.66 20.93L17.66 20.93Q18.80 20.93 19.28 20.42L19.28 20.42L19.28 18.75L17.52 18.75L17.52 17.62L20.76 17.62L20.76 20.89Q20.29 21.50 19.47 21.81Q18.65 22.12 17.61 22.12L17.61 22.12Q16.54 22.12 15.71 21.63Q14.89 21.14 14.44 20.24Q13.99 19.33 13.97 18.13ZM26.86 22L25.37 22L25.37 13.47L28.64 13.47Q30.07 13.47 30.91 14.21Q31.75 14.96 31.75 16.18L31.75 16.18Q31.75 17.44 30.93 18.13Q30.10 18.83 28.62 18.83L28.62 18.83L26.86 18.83L26.86 22ZM26.86 14.66L26.86 17.64L28.64 17.64Q29.43 17.64 29.84 17.27Q30.26 16.90 30.26 16.19L30.26 16.19Q30.26 15.50 29.84 15.09Q29.42 14.68 28.68 14.66L28.68 14.66L26.86 14.66ZM41.39 22L36.03 22L36.03 13.47L37.51 13.47L37.51 20.82L41.39 20.82L41.39 22Z" fill="#FFFFFF"/><path class="svg__text" d="M66.72 21.34L66.72 21.34L67.58 19.55Q68.08 19.88 68.69 20.07Q69.31 20.25 69.92 20.25L69.92 20.25Q70.53 20.25 70.89 20.02Q71.25 19.79 71.25 19.37L71.25 19.37Q71.25 18.55 69.96 18.55L69.96 18.55L68.97 18.55L68.97 17.05L70.47 15.44L67.16 15.44L67.16 13.60L73.23 13.60L73.23 15.09L71.49 16.96Q72.53 17.18 73.09 17.82Q73.65 18.46 73.65 19.37L73.65 19.37Q73.65 20.11 73.24 20.75Q72.84 21.39 72.02 21.78Q71.20 22.17 69.99 22.17L69.99 22.17Q69.10 22.17 68.23 21.95Q67.36 21.74 66.72 21.34Z" fill="#FFFFFF" x="66.42"/></svg>